<svg width="64" height="64" viewBox="0 0 64 64" fill="none" xmlns="http://www.w3.org/2000/svg">
<path d="M59.595 35.879C63.426 28.581 55.639 23.52 45.458 21.038C46.224 19.297 46.446 17.018 44.286 14.842C41.516 12.057 43.357 8 43.357 8C43.357 8 37.543 13.363 41.214 17.061C42.568 18.424 43.273 19.621 43.61 20.622C40.7993 20.043 37.9534 19.6509 35.091 19.448C35.946 17.124 36.029 14.205 33.335 11.41C29.647 7.579 32.103 2 32.103 2C32.103 2 24.35 9.374 29.245 14.458C31.032 16.312 31.973 17.944 32.429 19.312C29.395 19.221 26.475 19.354 23.881 19.717C24.19 18.222 23.932 16.503 22.283 14.843C19.513 12.058 21.355 8 21.355 8C21.355 8 15.54 13.363 19.212 17.061C20.362 18.219 21.036 19.253 21.423 20.154C20.9843 20.25 20.5603 20.3543 20.151 20.467C7.50896 19.284 1.99496 21.896 4.51396 27.02C0.117963 31.416 1.76996 36.433 7.27096 40.272C10.141 52.093 10.88 62 32.496 62C51.784 62 54.449 54.11 56.838 44.012C64.006 42.585 62.479 39.149 59.595 35.879ZM57.808 34.698C55.407 39.818 44.987 43.672 32.496 43.672C20.006 43.672 9.58596 39.818 7.18396 34.698C7.13296 34.546 7.08396 34.388 7.03496 34.234C8.17896 31.332 11.897 28.814 17.119 27.128C15.892 28.314 15.637 30.085 18.866 30.706C19.79 30.884 22.327 30.268 21.218 27.12C21.063 26.68 20.81 26.385 20.499 26.207C24.087 25.386 28.16 24.913 32.496 24.913C32.982 24.913 33.459 24.93 33.938 24.941C31.436 25.829 29.395 28.565 34.504 29.372C35.632 29.55 38.729 28.934 37.375 25.786C37.2565 25.5055 37.0669 25.2608 36.825 25.076C41.612 25.428 45.949 26.35 49.455 27.679C46.372 27.507 42.952 29.407 48.429 32.082C49.604 32.656 53.174 33.183 52.683 29.707C52.647 29.456 52.5584 29.2154 52.423 29.001C55.226 30.478 57.181 32.269 57.956 34.234L57.808 34.698Z" fill="#FFC107"/>
<path d="M25.8371 36.841C29.0701 36.841 31.2261 33.918 32.9151 32.774C35.2751 31.174 41.2091 30.55 35.9831 30.424C31.0261 30.305 24.9061 34.329 20.8161 34.052C14.0441 33.592 20.9801 36.841 25.8371 36.841ZM32.8231 42.813C33.9651 43.033 37.1041 42.271 35.7311 38.378C34.1801 33.973 24.7911 41.267 32.8231 42.813ZM15.0471 33.178C13.9561 31.638 12.3741 29.685 11.7191 30.702C10.8241 32.093 10.5421 34.892 11.1921 35.016C16.2881 35.993 15.9311 34.425 15.0471 33.178ZM44.6721 33.802C45.5911 32.664 43.7561 29.925 42.5781 30.404C40.7341 31.154 39.6711 30.646 38.8611 31.784C36.9641 34.449 43.4231 35.347 44.6721 33.802ZM44.0981 37.063C42.7761 36.48 43.0881 38.433 41.1351 36.866C39.7371 35.744 36.7291 38.574 38.7131 40.496C40.9211 42.635 41.5091 40.602 42.4371 40.773C44.3231 41.12 47.5661 38.593 44.0981 37.063ZM22.1161 37.731C21.4271 37.053 20.5031 37.871 19.9811 38.869C19.4641 38.615 19.0431 38.556 19.0431 38.556C18.6481 37.43 17.4731 36.658 17.4731 36.658C17.4731 36.658 17.5801 37.829 17.7351 38.4C16.4371 37.939 16.3971 35.619 16.3971 35.619C16.3971 35.619 15.5261 36.14 15.6051 37.025C14.1761 35.872 12.9591 36.411 12.9591 36.411C12.9591 36.411 14.7721 37.431 15.0221 38.119C14.0041 38.198 13.4101 38.55 13.0641 39.369C13.0651 39.376 15.0761 38.412 16.5641 39.108C15.9771 39.588 16.2691 40.787 16.2691 40.787C17.6541 39.319 18.7601 39.476 19.6451 39.739C19.5381 40.188 19.5451 40.598 19.7351 40.847C21.2701 42.865 26.6171 42.411 28.0531 40.919C29.7921 39.114 24.9601 40.53 22.1161 37.731Z" fill="#F44336"/>
<path d="M25.8929 30.1299C25.4379 31.0439 25.4349 31.7339 25.9609 32.4519C25.9679 32.4539 26.1729 30.2339 27.5339 29.3139C27.6449 30.0639 28.8229 30.4279 28.8229 30.4279C27.8809 27.0919 30.6309 26.9179 30.6179 25.7209C29.1599 25.8439 28.3319 26.9039 28.3319 26.9039C27.1629 26.6649 25.8959 27.2759 25.8959 27.2759C25.8959 27.2759 26.9569 27.7849 27.5259 27.9459C26.4639 28.8229 24.4519 27.6659 24.4519 27.6659C24.4519 27.6659 24.4519 28.6819 25.2519 29.0669C23.5289 29.7019 23.3669 31.0219 23.3669 31.0219C23.3669 31.0219 25.1729 29.9909 25.8929 30.1299ZM51.4439 34.6859C51.8579 33.8999 51.2539 33.0829 51.2539 33.0829C51.2539 33.0829 50.3249 35.2099 48.9499 35.1369C49.3119 34.6689 49.8619 33.6289 49.8619 33.6289C49.8619 33.6289 48.4799 33.8919 47.6819 34.7789C47.6819 34.7789 46.3859 34.4199 45.1419 35.1879C45.8439 36.1579 48.1579 34.6609 49.3849 37.9029C49.3849 37.9029 50.1149 36.9099 49.7579 36.2409C51.3999 36.1699 52.8859 37.8319 52.8909 37.8259C52.8849 36.9359 52.4729 36.3839 51.5619 35.9199C52.0579 35.3809 54.1239 35.1359 54.1239 35.1359C54.1239 35.1359 53.2079 34.1709 51.4439 34.6859Z" fill="#4CAF50"/>
</svg>
